# xmcd
#
# Track frame offsets:
#	150
#	20393
#	38309
#	58094
#	78241
#	100257
#	118835
#	137203
#	156586
#	172895
#	193258
#
# Disc length: 2896 seconds
#
# Revision: 5
# Processed by: cddbd v1.4PL0 Copyright (c) Steve Scherf et al.
# Submitted via: audiograbber 1.82.02
#
DISCID=8e0b4e0b
DTITLE=Florian Ast - Bilderbuch
DYEAR=2002
DGENRE=Rock
TTITLE0=Bis mi ging no wosch
TTITLE1=Tanze
TTITLE2=s' Läbe isch schön
TTITLE3=I dine Arme
TTITLE4=s' Land
TTITLE5=Paris
TTITLE6=Telefonschatz
TTITLE7=Bild
TTITLE8=Verpisse mi
TTITLE9=Dr chli Prinz
TTITLE10=Mis Lied für hei
EXTD=BMG Ariola (Schweiz) AG
EXTT0=
EXTT1=
EXTT2=
EXTT3=
EXTT4=
EXTT5=
EXTT6=
EXTT7=
EXTT8=
EXTT9=
EXTT10=
PLAYORDER=
